<svg width="33" height="33" xmlns="http://www.w3.org/2000/svg" xml:space="preserve" version="1.1" fill="#01EFAE">

 <g>
  <title>Layer 1</title>
  <g stroke="null" id="svg_1">
   <path stroke="null" id="svg_2" d="m29.8353,27.99261l-26.80004,0c-0.84095,0 -1.52273,0.6902 -1.52273,1.54155c0,0.85135 0.68178,1.54155 1.52273,1.54155l26.80004,0c0.84095,0 1.52273,-0.6902 1.52273,-1.54155c0,-0.85135 -0.68178,-1.54155 -1.52273,-1.54155z"/>
   <path stroke="null" id="svg_3" d="m4.65951,25.78522c1.85012,0 3.35,-1.51843 3.35,-3.39141c0,-0.72124 -0.22303,-1.38935 -0.60219,-1.93896l2.38581,-4.52692c0.0203,0.00041 0.0403,0.00154 0.06071,0.00154c0.51255,0 0.9979,-0.11695 1.43228,-0.32527l5.20702,4.06805c-0.03726,0.20266 -0.05776,0.41129 -0.05776,0.62494c0,1.87298 1.49989,3.39141 3.35,3.39141c1.85012,0 3.35,-1.51843 3.35,-3.39141c0,-0.68712 -0.20242,-1.32604 -0.5494,-1.86024l5.38549,-9.56142c0.05147,0.00236 0.10314,0.00401 0.15512,0.00401c1.85012,0 3.35,-1.51843 3.35,-3.39141s-1.49989,-3.39141 -3.35,-3.39141s-3.35,1.51843 -3.35,3.39141c0,0.68712 0.20242,1.32604 0.5494,1.86024l-5.38549,9.56132c-0.05147,-0.00236 -0.10304,-0.00401 -0.15512,-0.00401c-0.51255,0 -0.9979,0.11695 -1.43228,0.32516l-5.20702,-4.06805c0.03736,-0.20266 0.05776,-0.41129 0.05776,-0.62484c0,-1.87298 -1.49989,-3.39141 -3.35,-3.39141c-1.85012,0 -3.35,1.51843 -3.35,3.39141c0,0.72124 0.22303,1.38935 0.60219,1.93896l-2.38581,4.52692c-0.0203,-0.00041 -0.0403,-0.00154 -0.0606,-0.00154c-1.85012,0 -3.35,1.51843 -3.35,3.39141c-0.0001,1.87309 1.49979,3.39152 3.3499,3.39152z"/>
  </g>
 </g>
</svg>